# xmcd CD database file
#
# Track frame offsets:
#	150
#	18236
#	35393
#	54883
#	74344
#	92551
#	116446
#	135231
#	156158
#	171293
#	189122
#
# Disc length: 2859 seconds
#
# Revision: 0
# Processed by: cddbd v1.5.1PL2 Copyright (c) Steve Scherf et al.
# Submitted via: CDex 1.51
#
DISCID=7d0b290b
DTITLE=Richard Zachary - Zydeco
DYEAR=2003
DGENRE=Blues
TTITLE0=Come On, Sheila
TTITLE1=zack's zydeco
TTITLE2=cote blanche bay
TTITLE3=crawfish
TTITLE4=heart on fire
TTITLE5=jambalaya
TTITLE6=one kiss
TTITLE7=Snake Bite Love
TTITLE8=zydeco jump
TTITLE9=Big Chief
TTITLE10=Sunset on Louisianne
EXTD=YEAR: 2003
EXTT0=
EXTT1=
EXTT2=
EXTT3=
EXTT4=
EXTT5=
EXTT6=
EXTT7=
EXTT8=
EXTT9=
EXTT10=
PLAYORDER=
